<?xml version="1.0" encoding="UTF-8" standalone="no"?>
<!-- Created with Inkscape (http://www.inkscape.org/) -->

<svg
   width="297mm"
   height="210mm"
   viewBox="0 0 297 210"
   version="1.1"
   id="svg433"
   inkscape:version="1.2.1 (0b8a7e5fb6, 2022-09-14, custom)"
   sodipodi:docname="99bitcoins.svg"
   xmlns:inkscape="http://www.inkscape.org/namespaces/inkscape"
   xmlns:sodipodi="http://sodipodi.sourceforge.net/DTD/sodipodi-0.dtd"
   xmlns="http://www.w3.org/2000/svg"
   xmlns:svg="http://www.w3.org/2000/svg">
  <sodipodi:namedview
     id="namedview435"
     pagecolor="#ffffff"
     bordercolor="#999999"
     borderopacity="1"
     inkscape:showpageshadow="0"
     inkscape:pageopacity="0"
     inkscape:pagecheckerboard="0"
     inkscape:deskcolor="#d1d1d1"
     inkscape:document-units="mm"
     showgrid="false"
     inkscape:zoom="0.5946522"
     inkscape:cx="401.91561"
     inkscape:cy="495.24747"
     inkscape:window-width="1920"
     inkscape:window-height="945"
     inkscape:window-x="0"
     inkscape:window-y="31"
     inkscape:window-maximized="1"
     inkscape:current-layer="layer1" />
  <defs
     id="defs430" />
  <g
     inkscape:label="Layer 1"
     inkscape:groupmode="layer"
     id="layer1">
    <rect
       style="fill:#ffffff;stroke-width:0.079375;stroke-miterlimit:10"
       id="rect721"
       width="299.48715"
       height="212.47188"
       x="-0.99711829"
       y="-1.0632181" />
    <g
       id="g436"
       transform="matrix(0.12281026,0,0,0.12281026,51.746171,87.597448)">
	<path
   class="st0"
   d="m 173.3,188.6 c 28.9,-3.5 55.2,-12.2 76.1,-25.2 C 273.8,148.3 288.3,120 284.7,86.7 280.7,49.1 239.9,-0.1 145.3,0.1 107,0.1 69.8,7.7 43.3,25.6 17.3,43.2 0,69.7 0,96.5 c 0,43.7 42.6,80.2 108.3,90.7 l 72.1,40 z"
   id="path414"
   style="fill:#c22609" />

	<path
   class="st1"
   d="m 89.2,38.3 c -6.4,0 -11.7,2.4 -15.7,7.3 -4,4.9 -6,11.2 -6,18.9 0,10.9 2.7,19.8 8,26.6 5.4,6.9 12.3,10.3 20.8,10.3 6.9,0 12.7,-2.3 17.3,-7.1 4.6,-4.7 7,-10.6 7,-17.6 0,-10.3 -3.1,-19.3 -9.4,-27 -6.3,-7.6 -13.5,-11.4 -22,-11.4 m 5.9,-5.8 c 14,0 25.5,4.6 34.5,13.8 9,9.2 13.5,21 13.5,35.4 0,17.9 -7,33.9 -20.9,48 -13.9,14.1 -31.4,22.9 -52.5,26.3 l -8.5,1.4 c -1,0.1 -1.7,0.2 -2.5,0.2 -1.9,0 -2.8,-0.9 -2.7,-2.8 0.1,-1 0.4,-1.6 1,-1.8 0.6,-0.2 2.4,-0.7 5.6,-1.3 10.1,-2 19.9,-6.6 29.5,-13.9 9.6,-7.3 16,-14.9 19.1,-23 l 2,-5.2 c 0.7,-1.8 1.1,-3.2 1.1,-4.3 0,-1.9 -0.7,-2.8 -2.3,-2.7 -0.7,0.1 -1.6,0.4 -2.8,1.1 -3.7,2.3 -8.4,4.4 -13.8,6.1 -5.5,1.7 -10,2.6 -13.7,2.6 -9.9,0 -18.2,-3.4 -25,-10.3 -6.7,-6.8 -10,-15.3 -10,-25.3 0,-13 4.6,-23.6 13.6,-31.9 C 69.4,36.6 81,32.5 95.1,32.5"
   id="path416"
   style="fill:#ffffff" />

	<path
   class="st1"
   d="m 194.2,38.3 c -6.4,0 -11.7,2.4 -15.7,7.3 -4,4.9 -6,11.2 -6,18.9 0,10.9 2.7,19.8 8,26.6 5.4,6.9 12.3,10.3 20.8,10.3 6.9,0 12.7,-2.3 17.3,-7.1 4.6,-4.7 7,-10.6 7,-17.6 0,-10.3 -3.1,-19.3 -9.4,-27 -6.3,-7.6 -13.6,-11.4 -22,-11.4 m 5.8,-5.8 c 14,0 25.5,4.6 34.5,13.8 9,9.2 13.5,21 13.5,35.4 0,17.9 -7,33.9 -20.9,48 -13.9,14.1 -31.4,22.9 -52.5,26.3 l -8.5,1.4 c -1,0.1 -1.7,0.2 -2.5,0.2 -1.9,0 -2.8,-0.9 -2.7,-2.8 0.1,-1 0.4,-1.6 1,-1.8 0.6,-0.2 2.4,-0.7 5.6,-1.3 10.1,-2 19.9,-6.6 29.5,-13.9 9.5,-7.3 16,-14.9 19.1,-23 l 2,-5.2 c 0.7,-1.8 1.1,-3.2 1.1,-4.3 0,-1.9 -0.7,-2.8 -2.3,-2.7 -0.7,0.1 -1.6,0.4 -2.8,1.1 -3.7,2.3 -8.4,4.4 -13.8,6.1 -5.4,1.7 -10,2.6 -13.7,2.6 -9.9,0 -18.2,-3.4 -25,-10.3 -6.7,-6.8 -10.1,-15.3 -10.1,-25.3 0,-13 4.6,-23.6 13.6,-31.9 9.2,-8.3 20.8,-12.4 34.9,-12.4"
   id="path418"
   style="fill:#ffffff" />

	<path
   class="st2"
   d="m 553.4,22.4 c -3.4,0 -5.3,1.4 -5.7,4.1 l -1,6.4 -1.6,9.4 -1.4,9.1 c -0.8,3.5 -1.3,6.2 -1.4,8.2 -0.2,2.2 1.3,3.2 4.2,3.2 2,0 3.6,-1.4 4.6,-4.3 l 1.1,-2.9 c 2.8,-7.6 4.8,-12.4 6.4,-14.3 1.6,-1.9 4.7,-3.7 9.5,-5.2 6.6,-2 18.8,-3.1 36.9,-3.1 7.7,0 11.5,2.8 11.5,8.3 v 93.1 l 0.1,4.9 c 0,6.2 -1.9,11.1 -5.8,14.8 -3.8,3.6 -9.2,5.6 -16.3,5.9 -2.7,0.2 -4.5,0.4 -5.2,0.9 -0.8,0.5 -1.3,1.5 -1.4,3.1 -0.1,1.9 1.3,2.8 4.1,2.8 1.2,0 3.4,-0.1 6.5,-0.4 l 76.4,-0.4 c 1.6,0.1 2.8,0.1 3.4,0.1 2.8,0 4.2,-0.8 4.2,-2.5 0,-2.3 -1.6,-3.5 -4.9,-3.7 -11.2,-0.5 -19,-3.3 -23.5,-8.2 -4.4,-4.9 -6.6,-13.3 -6.6,-25.1 v -79 c 0,-6.5 1.7,-10.6 5,-12.2 3.4,-1.7 11.9,-2.5 25.6,-2.5 10.2,0 18,1.4 23.3,4.3 5.4,2.9 9,7.6 10.9,14.1 0.8,2.7 2.2,4 4.3,4 2.5,0 3.6,-1.1 3.6,-3.5 0,-2.2 -0.3,-5.2 -1,-8.9 -0.8,-4.5 -1.3,-7.3 -1.3,-8.5 l -0.7,-7.6 C 717,23.6 714.3,22 709.3,22 708.6,21.8 554.4,22.4 553.4,22.4"
   id="path420"
   style="fill:#2c292b" />

	<path
   class="st2"
   d="m 457.9,24.7 c 0,1.3 0.7,2.2 1.9,2.7 1.3,0.5 4.3,1.1 8.9,1.6 7.7,0.9 13,2.7 15.9,5.5 2.9,2.8 4.3,7.3 4.3,13.7 v 83.5 l -0.1,9.3 c 0,6.1 -1.1,10.4 -3.2,13 -2.1,2.6 -6.4,4.8 -12.9,6.7 l -4,2.5 0.2,0.8 c 0.5,1.5 1.8,2.2 3.8,2.2 h 70.4 c 5.9,0 8.8,-1 8.8,-3.1 0,-2.2 -2.2,-3.2 -6.6,-3.2 -6.7,0 -12.2,-1.4 -16.4,-4.3 -4.2,-2.9 -6.8,-7 -7.9,-12.4 l -1.1,-10.5 v -89 c 0,-6 1,-10 2.8,-11.9 1.9,-2 6.1,-3.4 12.5,-4.2 1.8,-0.2 2.9,-0.5 3.4,-1 0.4,-0.4 0.7,-1.3 0.7,-2.6 0,-1.7 -2,-1.7 -5,-1.7 -5,0 -71.5,-0.3 -73.1,-0.4 -0.1,0 -0.1,0 -0.2,0 -2,-0.1 -3.1,0.9 -3.1,2.8"
   id="path422"
   style="fill:#2c292b" />

	<path
   class="st2"
   d="m 751.4,36.4 c -10.4,6.9 -18.7,15.9 -24.8,26.9 -6.2,11 -9.3,22.3 -9.3,33.9 0,21.1 8.2,38.2 24.8,51.3 16.6,13.1 38,19.7 64.6,19.7 27.4,0 50.5,-8.2 69.1,-24.5 7.1,-6.3 10.7,-10.9 10.7,-13.7 0,-1.6 -0.9,-2.3 -2.6,-2.3 -1.2,0.1 -2.4,0.7 -3.6,1.7 l -8.8,7.4 c -5.9,5 -13.9,9.2 -24.1,12.6 -10.2,3.4 -19.9,5.1 -29,5.1 -15.4,0 -29.7,-5 -42.8,-15.1 -17.5,-13.5 -26.1,-31.5 -26.1,-54.1 0,-17.3 5.3,-31.4 16,-42.2 10.7,-10.9 24.5,-16.3 41.6,-16.3 19.3,0 36.7,6.5 52.4,19.7 3.9,3.2 7.9,7.6 12.2,13 4.3,5.5 6.8,9.5 7.5,12.2 0.4,1.7 1.4,2.5 2.8,2.5 2.5,0 3.7,-1.3 3.7,-4 0,-1.8 -0.2,-3.9 -0.7,-6.2 l -2.5,-29.9 c 0,-4.6 -1.4,-6.8 -4.2,-6.8 -1.2,0 -2,0.2 -2.5,0.8 l -2.8,3.3 c -0.9,1.1 -2.2,1.7 -4.1,1.7 -1.4,0 -3.1,-0.4 -4.9,-1.3 l -8.9,-4 c -12.5,-5.6 -27.2,-8.4 -44.1,-8.4 -22.6,0 -42.5,5.7 -59.6,17"
   id="path424"
   style="fill:#2c292b" />

	<path
   class="st2"
   d="m 944.8,139.8 c -12.7,-13.7 -19.2,-31.6 -19.2,-53.6 0,-18.6 5,-33.1 15.3,-43.5 10.2,-10.4 24.4,-15.7 42.5,-15.7 16.9,0 31.7,4.6 44.1,13.6 8.6,6.1 15.4,14.5 20.6,24.9 5.1,10.4 7.7,21.2 7.7,32.2 0,19 -5.6,34.2 -16.6,45.5 -11.1,11.3 -25.9,17 -44.3,17 -20.6,0.2 -37.3,-6.7 -50.1,-20.4 m 5.4,-114.2 c -13.5,4.3 -24.6,10.1 -33.4,17.6 -7.6,6.4 -13.6,14.2 -18,23.6 -4.4,9.4 -6.6,18.8 -6.6,28.4 0,22.2 8.8,39.9 26.2,53.2 17.5,13.3 40.9,19.9 70,19.9 30.5,0 54.5,-7.6 72,-22.9 17.9,-15.6 26.8,-34.6 26.8,-57.1 0,-20.6 -8.7,-37.3 -26,-50 -17.3,-12.7 -40,-19 -68.2,-19 -15,0 -29.3,2.1 -42.8,6.3"
   id="path426"
   style="fill:#2c292b" />

	<path
   class="st2"
   d="m 1185.6,22.3 c -3.1,0 -4.6,1 -4.6,3 0,1.6 1.4,2.5 4.2,2.7 20.5,1.1 30.7,12.4 30.7,33.9 v 45.4 l -1,24.9 c 0,8.6 -1.5,15.1 -4.5,19.7 -3.1,4.6 -7.9,7.6 -14.5,9.1 -2.6,0.6 -4,1.6 -4,3 0,1.7 1.3,2.6 3.7,2.6 1.4,0 60.7,-0.2 61.8,-0.2 2.8,0 4.2,-1.1 4.2,-3.2 0,-1.6 -1.4,-2.5 -4.1,-2.7 -14.6,-1.1 -23.5,-5.5 -26.3,-13.3 -2.8,-7.3 -4.2,-21.8 -4.2,-43.6 V 62.9 l 0.1,-3.1 c 0,-3.1 1.1,-4.7 3.2,-4.7 0.8,0 2.3,0.9 4.5,2.8 l 123,106 c 1.7,1.5 3.4,2.2 5,2.3 1.8,0.1 3.7,-0.9 3.7,-2.9 l 1,-107.2 V 51 c 0,-14.3 5.8,-22.3 17.5,-24 2.9,-0.4 4.3,-0.6 4.3,-2.4 0,-2 -1.9,-2.3 -4.8,-2.3 h -60.1 c -2.6,0 -4.3,0 -4.3,1.9 0,1.5 1.5,2.3 4.4,2.5 12.5,0.7 20.9,4 25.3,9.8 4.3,5.8 6.4,16.9 6.4,33.3 0,14 -0.4,28.7 -1.3,44.1 -0.2,4.3 -1.2,6.4 -3.1,6.4 -2,0 -6.1,-2.6 -12.3,-8 0,0 -99.4,-87.5 -101,-88.5 -1.6,-1 -3.8,-1.4 -6.6,-1.4 -2,-0.2 -46.3,-0.1 -46.3,-0.1"
   id="path428"
   style="fill:#2c292b" />

	<path
   class="st2"
   d="m 1399.4,31.1 c -9.7,7.7 -14.6,17.4 -14.6,29 0,10 3.5,17.9 10.4,23.9 7,6 20.1,12.3 39.5,19.1 l 20.6,7.1 c 9.2,3.1 15.7,6.5 19.4,10 3.7,3.5 5.6,8.1 5.6,13.6 0,7 -3.5,13.1 -10.7,18.5 -7.2,5.4 -15.4,8.1 -24.5,8.1 -11.8,0 -23,-4.1 -34,-12.2 -11,-8.2 -18.6,-18.2 -23,-30.2 -0.5,-1.7 -1.4,-2.5 -2.7,-2.5 -2.8,0 -4.2,1.7 -4.2,5 0,2.6 10.3,37.3 10.9,37.9 0.7,0.6 3.1,1.2 7.3,1.9 3,0.5 7.6,1.6 13.9,3.1 13.6,3.3 23.3,4.9 29.6,4.9 15.2,0 28.6,-4.5 39.9,-13.6 11.4,-9 17,-19.6 17,-31.8 0,-11 -4.1,-20.5 -12.3,-28.3 -7,-6.5 -21.1,-13.1 -42.5,-19.9 -18,-5.6 -28.7,-9.8 -32.1,-12.2 -5.3,-3.9 -8,-8.5 -8,-13.9 0,-5.8 3,-10.8 9.1,-15.1 6.1,-4.3 13.1,-6.4 21.2,-6.4 11.8,0 23,3.5 33.6,10.7 10.6,7.1 17.2,15.5 19.7,25.3 0.7,2.6 1.9,4 3.5,4 2.2,0 3.4,-1.5 3.4,-4.5 0,-0.5 -3.4,-34.2 -3.4,-34.2 0,-2.3 -1,-3.5 -2.9,-3.5 -0.7,0 -1.4,0.1 -2.1,0.4 l -5.1,2 c -1.4,0.5 -2.6,0.7 -4,0.7 -1.7,0 -4.6,-0.6 -8.6,-1.9 l -9.1,-2.9 c -8.1,-2.5 -16.4,-3.8 -24.8,-3.8 -14.2,0 -26.2,3.9 -36,11.7"
   id="path430"
   style="fill:#2c292b" />

	<path
   class="st2"
   d="m 1080.6,24.7 c 0,1.3 0.7,2.2 1.9,2.7 1.3,0.5 4.3,1.1 8.9,1.6 7.7,0.9 13,2.8 15.8,5.5 2.9,2.8 4.4,7.3 4.4,13.7 v 83.5 l -0.1,9.3 c 0,6.1 -1.1,10.4 -3.2,13 -2.1,2.6 -6.4,4.9 -13,6.7 l -4,2.5 0.2,0.8 c 0.5,1.5 1.8,2.3 3.7,2.3 h 70.5 c 5.9,0 8.8,-1 8.8,-3.1 0,-2.2 -2.2,-3.2 -6.6,-3.2 -6.7,0 -12.2,-1.4 -16.4,-4.3 -4.2,-2.9 -6.8,-7 -7.9,-12.4 l -1.1,-10.5 V 43.6 c 0,-6 1,-10 2.8,-11.9 1.9,-2 6.1,-3.4 12.5,-4.2 1.8,-0.2 2.9,-0.5 3.4,-1 0.4,-0.4 0.7,-1.3 0.7,-2.6 0,-1.7 -2.3,-1.7 -5.3,-1.7 -4.9,0 -71.2,-0.3 -72.8,-0.4 -0.1,0 -0.2,0 -0.2,0 -2,0 -3,1 -3,2.9"
   id="path432"
   style="fill:#2c292b" />

	<path
   class="st2"
   d="m 354.1,145.4 c -0.7,-11.5 -1,-19.9 -1,-27.4 0,-7.5 -0.1,-16.4 3.3,-20.3 4.1,-4.6 13.3,-4.6 19.8,-4.6 13.8,0 17.9,0.4 28.8,2.6 18.8,3.8 28.4,13.9 28.4,30.2 0,8.4 -2.9,15.6 -8.7,21.6 -7.1,7.2 -20.2,10.8 -39.4,10.8 -19.5,0.1 -30.6,-2.7 -31.2,-12.9 M 356.8,82 C 354.3,80.4 353,77.5 353,73.4 V 47.2 c 0,-5.9 0.5,-11.9 4,-14.2 3.2,-2.2 8.6,-2 16.6,-2 14,0 25.3,0.4 33.8,6.7 8.6,6.4 12.9,14.8 12.9,25.3 0,12.8 -7.7,20 -23.1,21.5 h -27.1 c -6.3,0 -10.7,-0.9 -13.3,-2.5 m -59.1,-59.4 -3.4,-0.1 c -2.6,0 -3.8,1 -3.8,3.1 0,1.9 1,2.8 2.9,3 l 6.2,0.7 c 2.9,0.2 13.9,2.9 18.8,9.7 2.5,3.5 3.2,8.4 3.3,12.3 0.3,24.7 0.6,72 0.6,93.1 0,6.6 -1.7,10.6 -3.2,12.4 -3.4,4 -11.8,4.1 -13.4,4.3 -2.5,0.4 -3.6,1.3 -3.6,2.9 0,1.9 1.3,2.8 4.1,2.8 12.4,0 12.4,-0.1 92.4,-0.7 20.3,0 36.5,-4 48.5,-12.1 11.9,-8 17.9,-19 17.9,-32.8 0,-9.1 -3.2,-16.7 -9.8,-22.8 -6.5,-6.1 -15.4,-10 -26.7,-11.5 -3.6,-0.4 -5.4,-1.3 -5.2,-2.5 0.1,-0.8 1.8,-1.7 5.1,-2.8 C 442.9,76.8 450,68.2 450,56 450,45.3 444.2,36.8 432.7,30.4 421.1,24 405.5,22.5 386.4,22.5 379,22.3 297.7,22.6 297.7,22.6"
   id="path434"
   style="fill:#2c292b" />

</g>
  </g>
</svg>
