<?xml version="1.0" encoding="UTF-8" standalone="no"?>
<!-- Created with Inkscape (http://www.inkscape.org/) -->

<svg
   width="297mm"
   height="210mm"
   viewBox="0 0 297 210"
   version="1.1"
   id="svg433"
   inkscape:version="1.2.1 (0b8a7e5fb6, 2022-09-14, custom)"
   sodipodi:docname="bitcoinmagazine.svg"
   xmlns:inkscape="http://www.inkscape.org/namespaces/inkscape"
   xmlns:sodipodi="http://sodipodi.sourceforge.net/DTD/sodipodi-0.dtd"
   xmlns="http://www.w3.org/2000/svg"
   xmlns:svg="http://www.w3.org/2000/svg">
  <sodipodi:namedview
     id="namedview435"
     pagecolor="#ffffff"
     bordercolor="#999999"
     borderopacity="1"
     inkscape:showpageshadow="0"
     inkscape:pageopacity="0"
     inkscape:pagecheckerboard="0"
     inkscape:deskcolor="#d1d1d1"
     inkscape:document-units="mm"
     showgrid="false"
     inkscape:zoom="0.5946522"
     inkscape:cx="401.91561"
     inkscape:cy="495.24747"
     inkscape:window-width="1920"
     inkscape:window-height="945"
     inkscape:window-x="0"
     inkscape:window-y="31"
     inkscape:window-maximized="1"
     inkscape:current-layer="layer1" />
  <defs
     id="defs430" />
  <g
     inkscape:label="Layer 1"
     inkscape:groupmode="layer"
     id="layer1">
    <rect
       style="fill:#000000;stroke-width:0.079375;stroke-miterlimit:10"
       id="rect858"
       width="299.40881"
       height="211.80316"
       x="-0.94883341"
       y="-0.97103417" />
    <g
       transform="matrix(0.26458333,0,0,0.26458333,-2014.0662,-752.8314)"
       id="g226"
       style="clip-rule:evenodd;fill-rule:evenodd;stroke-linejoin:round;stroke-miterlimit:2">
        <g
   id="g224">
            <g
   transform="matrix(1.01863,0,0,1.01863,3894.85,1092.08)"
   id="g150">
                <path
   d="m 4182.98,2146.68 c -3.06,0 -5.43,2.5 -5.43,5.46 0,2.96 2.35,5.43 5.39,5.43 3.06,0 5.45,-2.5 5.45,-5.46 0,-2.98 -2.37,-5.43 -5.41,-5.43 z m -0.04,9.43 c -2.22,0 -3.93,-1.79 -3.93,-3.97 0,-2.17 1.73,-4 3.97,-4 2.22,0 3.95,1.79 3.95,3.97 0,2.18 -1.73,4 -3.99,4 z m 2.29,-4.91 c 0,-1.11 -0.76,-1.75 -2.09,-1.75 h -2.24 v 4.96 h 1.45 v -1.34 h 0.74 l 0.67,1.34 h 1.65 l -1.02,-1.61 c 0.54,-0.31 0.84,-0.85 0.84,-1.6 z m -2.88,0.77 v -1.41 h 0.79 c 0.45,0 0.7,0.25 0.7,0.7 0,0.45 -0.25,0.71 -0.7,0.71 z"
   style="fill:#ffffff;fill-rule:nonzero"
   id="path148" />

            </g>

            <g
   transform="matrix(1.55853,0,0,1.55853,5905.75,2083.98)"
   id="g222">
                <g
   id="g220">
                    <g
   transform="translate(1213.44,-72.6825)"
   id="g154">
                        <path
   d="m 97.44,836.68 -7.503,3.711 v -27.876 l 7.503,-3.711 z m 10.187,-5.038 -7.504,3.711 v -27.877 l 7.498,-3.708 h 0.006 z m 2.683,-1.327 v -27.877 l 7.503,-3.711 v 27.877 z"
   style="fill:#ffffff"
   id="path152" />

                    </g>

                    <g
   transform="translate(1213.44,-72.6995)"
   id="g158">
                        <path
   d="m 87.321,832.888 v 7.503 l -27.842,-13.77 v -7.504 z m 0,-10.187 v 7.503 l -27.842,-13.77 v -7.503 z m 0,-10.187 v 7.504 L 59.479,806.247 v -7.503 z"
   style="fill:#ff9500"
   id="path156" />

                    </g>

                    <g
   transform="translate(1213.44,-88.9345)"
   id="g162">
                        <path
   d="m 135.617,806.173 v 43.024 h 22.033 c 10.311,0 16.94,-4.665 16.94,-12.03 0,-5.462 -3.376,-9.758 -8.654,-10.863 4.48,-1.289 7.303,-4.91 7.303,-9.267 0,-6.629 -6.444,-10.864 -16.509,-10.864 z m 12.705,9.575 h 7.733 c 2.516,0 4.112,1.35 4.112,3.56 0,2.27 -1.596,3.743 -4.112,3.743 h -7.733 z m 0,16.018 h 7.733 c 3.252,0 5.278,1.473 5.278,3.806 0,2.516 -2.026,4.112 -5.278,4.112 h -7.733 z"
   style="fill:#ff9500;fill-rule:nonzero"
   id="path160" />

                    </g>

                    <g
   transform="translate(1213.44,-88.9336)"
   id="g166">
                        <rect
   x="182.261"
   y="806.17297"
   width="12.766"
   height="43.022999"
   style="fill:#ff9500"
   id="rect164" />

                    </g>

                    <g
   transform="translate(1213.44,-88.9345)"
   id="g170">
                        <path
   d="m 235.84,816.362 v -10.189 h -33.08 v 10.189 h 10.096 v 32.835 h 12.827 v -32.835 z"
   style="fill:#ff9500;fill-rule:nonzero"
   id="path168" />

                    </g>

                    <g
   transform="translate(1213.44,-88.7505)"
   id="g174">
                        <path
   d="m 263.5,805.621 c -13.318,0 -23.138,9.268 -23.138,21.788 0,12.704 9.636,22.156 22.709,22.156 6.505,0 13.563,-3.253 18.228,-8.286 l -7.365,-7.855 c -2.946,3.007 -6.935,4.971 -10.249,4.971 -5.831,0 -10.25,-4.787 -10.25,-11.109 0,-6.321 4.419,-11.047 10.25,-11.047 3.559,0 7.549,2.271 10.249,5.708 l 7.365,-8.715 c -4.358,-4.665 -11.293,-7.611 -17.799,-7.611 z"
   style="fill:#ff9500;fill-rule:nonzero"
   id="path172" />

                    </g>

                    <g
   transform="translate(1213.44,-88.7505)"
   id="g178">
                        <path
   d="m 307.935,805.621 c -13.502,0 -23.445,9.206 -23.445,21.849 0,12.705 9.943,22.095 23.445,22.095 13.502,0 23.445,-9.452 23.445,-22.095 0,-12.581 -9.943,-21.849 -23.445,-21.849 z m 0.184,10.679 c 5.647,0 10.188,4.726 10.188,11.232 0,6.505 -4.541,11.354 -10.188,11.354 -5.646,0 -10.556,-4.849 -10.556,-11.354 0,-6.506 4.848,-11.232 10.556,-11.232 z"
   style="fill:#ff9500;fill-rule:nonzero"
   id="path176" />

                    </g>

                    <g
   transform="translate(1213.44,-88.9336)"
   id="g182">
                        <rect
   x="338.62201"
   y="806.17297"
   width="12.766"
   height="43.022999"
   style="fill:#ff9500"
   id="rect180" />

                    </g>

                    <g
   transform="translate(1213.44,-88.9345)"
   id="g186">
                        <path
   d="m 399.935,849.197 v -43.024 h -11.661 v 24.059 l -18.228,-24.059 h -10.925 v 43.024 h 11.722 v -23.936 l 18.228,23.936 z"
   style="fill:#ff9500;fill-rule:nonzero"
   id="path184" />

                    </g>

                    <g
   transform="translate(1213.44,-20.0835)"
   id="g190">
                        <path
   d="m 147.814,798.62 v -10.721 h -3.747 l -2.34,5.598 -2.34,-5.598 h -3.747 v 10.721 h 3.089 v -5.873 l 1.836,4.833 h 2.324 l 1.836,-4.833 v 5.873 z"
   style="fill:#ffffff;fill-rule:nonzero"
   id="path188" />

                    </g>

                    <g
   transform="translate(1213.44,-20.0835)"
   id="g194">
                        <path
   d="m 157.25,797.106 0.536,1.514 h 3.777 l -4.358,-10.721 h -3.64 l -4.527,10.721 h 3.64 l 0.55,-1.514 z m -0.871,-2.539 h -2.233 l 1.132,-3.135 z"
   style="fill:#ffffff;fill-rule:nonzero"
   id="path192" />

                    </g>

                    <g
   transform="translate(1213.44,-20.0375)"
   id="g198">
                        <path
   d="m 169.409,792.931 v 2.493 c -0.52,0.214 -1.04,0.351 -1.407,0.351 -1.392,0 -2.416,-1.07 -2.416,-2.554 0,-1.453 1.009,-2.523 2.386,-2.523 0.887,0 1.927,0.443 2.645,1.132 l 2.004,-2.432 c -1.147,-1.01 -2.967,-1.652 -4.634,-1.652 -3.503,0 -6.041,2.31 -6.041,5.475 0,3.182 2.447,5.506 5.811,5.506 1.53,0 3.503,-0.581 4.696,-1.376 v -4.42 z"
   style="fill:#ffffff;fill-rule:nonzero"
   id="path196" />

                    </g>

                    <g
   transform="translate(1213.44,-20.0835)"
   id="g202">
                        <path
   d="m 181.675,797.106 0.535,1.514 h 3.778 l -4.359,-10.721 h -3.64 l -4.527,10.721 h 3.64 l 0.551,-1.514 z m -0.872,-2.539 h -2.233 l 1.132,-3.135 z"
   style="fill:#ffffff;fill-rule:nonzero"
   id="path200" />

                    </g>

                    <g
   transform="translate(1213.44,-20.0835)"
   id="g206">
                        <path
   d="m 196.48,790.117 v -2.218 h -9.544 v 2.723 h 4.818 l -5.001,5.781 v 2.217 h 9.834 v -2.722 h -5.109 z"
   style="fill:#ffffff;fill-rule:nonzero"
   id="path204" />

                    </g>

                    <g
   transform="translate(1213.44,-20.0836)"
   id="g210">
                        <rect
   x="198.269"
   y="787.89899"
   width="3.5480001"
   height="10.721"
   style="fill:#ffffff"
   id="rect208" />

                    </g>

                    <g
   transform="translate(1213.44,-20.0835)"
   id="g214">
                        <path
   d="m 214.374,798.62 v -10.721 h -3.212 v 5.506 l -4.237,-5.506 h -2.967 v 10.721 h 3.227 v -5.475 l 4.222,5.475 z"
   style="fill:#ffffff;fill-rule:nonzero"
   id="path212" />

                    </g>

                    <g
   transform="translate(1213.44,-20.0835)"
   id="g218">
                        <path
   d="m 225.584,790.591 v -2.692 h -9.069 v 10.721 h 9.207 v -2.691 h -5.659 v -1.331 h 5.016 v -2.692 h -5.016 v -1.315 z"
   style="fill:#ffffff;fill-rule:nonzero"
   id="path216" />

                    </g>

                </g>

            </g>

        </g>

    </g>
  </g>
</svg>
