<?xml version="1.0" encoding="utf-8"?>
<!-- Generator: Adobe Illustrator 25.0.1, SVG Export Plug-In . SVG Version: 6.00 Build 0)  -->
<svg version="1.0" id="katman_1" xmlns="http://www.w3.org/2000/svg" xmlns:xlink="http://www.w3.org/1999/xlink" x="0px" y="0px"
	 viewBox="0 0 600 400" style="enable-background:new 0 0 600 400;" xml:space="preserve">
<style type="text/css">
	.st0{fill:#030405;}
</style>
<path class="st0" d="M141.3,227.7l-21.6,9.4v-0.9c-4.3,1.1-8.7,1.7-13.2,1.9c-20.3-0.2-36.4-10.8-36.6-23.4v-4.7
	c6.6,9.7,20.3,16.2,36.6,15.9c5.4,0.2,10.7-0.5,15.9-1.9l1.9-4.7c-5.8,1.8-11.8,2.8-17.8,2.8c-20.3,0.1-36.4-10.5-36.6-23.4v-3.8
	c6.6,9,20.2,15.4,36.6,15.1c7.1,0.4,14.2-0.9,20.6-3.8l0.9-4.7c-6.7,3.3-14.1,5-21.6,4.7c-20.3,0.3-36.4-10.3-36.6-23.4v-3.8
	c6.6,9.2,20.3,15.6,36.6,15.9c8.8-0.3,17.5-2.5,25.4-6.5l0.9-5.6c-6.5,4.8-16.1,8-26.2,8.4c-20.4-0.5-36.5-11.1-36.7-24.4
	c0.2-12.6,16.3-23.3,36.6-23.4c12.1,0.2,23.3,4.5,30,11.3l0.7,1h4.7l-0.7-1.1c-6.7-9-20-15-34.8-15c-22.4,0-40.4,12.4-40.4,27.2
	v48.8c0.8,14.5,18.3,26.3,40.4,26.3C121.1,241.8,134.2,236,141.3,227.7z"/>
<path class="st0" d="M132.5,260.8l7.6-32.2l-21.8,9.5l13.3-55.9H106l6.6-27.5h81.5l-6.6,27.5h-26.5l-5.7,15.2l29.4-12.3L132.5,260.8
	z M145.8,221.9l-3.8,18.9l31.3-47.4l-25.6,11.4l11.4-26.5h25.6l4.7-19.9h-73.9l-4.7,19.9h25.6l-12.3,53L145.8,221.9z"/>
<path class="st0" d="M244.7,173.1c0,1.4-0.4,2.7-0.9,3.9c-0.6,1.2-1.4,2.3-2.4,3.2c-2.3,1.8-5.1,2.8-8,2.6c-1.6,0.1-3.2-0.2-4.7-0.8
	c-1.5-0.6-2.8-1.6-3.9-2.8c-2.1-2.4-3.1-5.8-3.1-10.1v-1.7c-0.1-2.5,0.4-4.9,1.4-7.2c0.9-2,2.3-3.6,4.1-4.8c2.2-1.2,4.7-1.8,7.2-1.6
	c2.5,0.2,4.9,1.1,6.9,2.6c2.1,1.9,3.3,4.6,3.5,7.4h-5.8c0-1.5-0.5-2.9-1.5-4c-1.1-0.9-2.6-1.3-4-1.2c-0.8-0.1-1.7,0.1-2.5,0.5
	c-0.8,0.4-1.4,0.9-1.9,1.6c-1,1.4-1.5,3.6-1.5,6.5v2.1c0,3.1,0.5,5.3,1.4,6.7c0.5,0.7,1.1,1.3,1.9,1.6c0.8,0.4,1.6,0.5,2.5,0.5
	c1.5,0.1,2.9-0.3,4-1.2c1-1,1.5-2.4,1.5-3.8H244.7z"/>
<path class="st0" d="M271.8,169c0.1,2.5-0.4,5-1.5,7.3c-0.9,2-2.4,3.7-4.2,4.9c-1.9,1.1-4.1,1.7-6.3,1.7c-2.2,0-4.4-0.6-6.3-1.7
	c-1.9-1.2-3.4-2.8-4.3-4.8c-1-2.3-1.6-4.7-1.5-7.2v-1.4c-0.1-2.5,0.5-5,1.5-7.4c0.9-2,2.4-3.7,4.3-4.9c1.9-1.1,4.1-1.7,6.3-1.7
	c2.2,0,4.4,0.6,6.3,1.7c1.9,1.2,3.3,2.9,4.3,4.9c1,2.3,1.6,4.8,1.5,7.3V169z M265.9,167.7c0-3-0.5-5.2-1.6-6.8
	c-0.5-0.7-1.2-1.3-2-1.7c-0.8-0.4-1.7-0.6-2.5-0.6c-0.9,0-1.8,0.2-2.5,0.6c-0.8,0.4-1.5,1-2,1.7c-1.1,1.5-1.6,3.8-1.6,6.7v1.4
	c-0.1,2.3,0.4,4.7,1.6,6.7c0.5,0.7,1.2,1.3,2,1.7c0.8,0.4,1.7,0.6,2.6,0.6c0.9,0,1.8-0.2,2.6-0.6c0.8-0.4,1.5-1,2-1.7
	c1-1.5,1.6-3.8,1.6-6.7V167.7z"/>
<path class="st0" d="M282.2,182.4h-5.8v-28.3h5.8V182.4z"/>
<path class="st0" d="M310.6,182.4h-5.8l-11.3-18.6v18.6h-5.8v-28.3h5.8l11.4,18.6v-18.6h5.8V182.4z"/>
<path class="st0" d="M336.4,158.9h-8.7v23.6H322v-23.6h-8.5v-4.7h23V158.9z"/>
<path class="st0" d="M356.8,170.2h-11.2v7.6h13.1v4.7h-19v-28.3h18.9v4.7h-13.1v6.7h11.2V170.2z"/>
<path class="st0" d="M368,177.7h12.4v4.7h-18.2v-28.3h5.8V177.7z"/>
<path class="st0" d="M400.7,170.2h-11.2v7.6h13.1v4.7h-19v-28.3h18.9v4.7h-13.1v6.7h11.2V170.2z"/>
<path class="st0" d="M428.5,178.9c-1.2,1.4-2.7,2.4-4.4,2.9c-2,0.7-4.2,1.1-6.4,1c-2.3,0.1-4.5-0.5-6.4-1.6
	c-1.9-1.1-3.4-2.7-4.3-4.7c-1.1-2.2-1.6-4.7-1.5-7.2v-1.9c-0.1-2.5,0.4-5,1.4-7.3c0.9-2,2.3-3.6,4.1-4.7c1.9-1.1,4.1-1.7,6.3-1.6
	c3.4,0,6,0.8,7.9,2.4c2,1.8,3.2,4.3,3.4,7h-5.7c-0.1-1.4-0.7-2.6-1.7-3.6c-1-0.8-2.3-1.2-3.7-1.1c-0.9,0-1.8,0.1-2.6,0.5
	c-0.8,0.4-1.5,1-2,1.7c-1,1.5-1.6,3.7-1.6,6.6v1.8c0,3,0.6,5.2,1.7,6.7c0.6,0.8,1.3,1.4,2.2,1.8c0.9,0.4,1.8,0.6,2.8,0.5
	c2.2,0,3.7-0.5,4.7-1.4v-4.9h-5.3v-4.3h11.1V178.9z"/>
<path class="st0" d="M443.6,172.1H439v10.4h-5.8v-28.3h10.5c3.3,0,5.9,0.7,7.7,2.2c0.9,0.8,1.6,1.7,2.1,2.8c0.5,1.1,0.7,2.3,0.6,3.5
	c0.1,1.7-0.4,3.4-1.3,4.8c-0.9,1.4-2.3,2.4-3.8,3.1l6.1,11.6v0.3h-6.3L443.6,172.1z M439,167.3h4.7c1.2,0.1,2.5-0.3,3.4-1.1
	c0.4-0.4,0.7-0.9,0.9-1.4c0.2-0.5,0.3-1.1,0.3-1.7c0-0.6-0.1-1.1-0.2-1.7c-0.2-0.5-0.5-1-0.9-1.5c-0.5-0.4-1-0.7-1.6-0.9
	c-0.6-0.2-1.2-0.3-1.9-0.2H439V167.3z"/>
<path class="st0" d="M474.5,176.6h-10.2l-1.9,5.8h-6.2l10.5-28.3h5.4l10.6,28.3h-6.2L474.5,176.6z M465.9,171.9h7.1l-3.6-10.6
	L465.9,171.9z"/>
<path class="st0" d="M491.2,172.5v10h-5.8v-28.3h11c1.9,0,3.8,0.4,5.6,1.2c1.5,0.7,2.8,1.9,3.7,3.3c0.9,1.5,1.3,3.2,1.3,4.9
	c0.1,1.2-0.2,2.5-0.7,3.6c-0.5,1.1-1.2,2.1-2.2,2.9c-1.9,1.6-4.5,2.4-7.9,2.4H491.2z M491.2,167.7h5.2c1.3,0.1,2.5-0.3,3.5-1.1
	c0.4-0.4,0.7-0.9,1-1.4c0.2-0.5,0.3-1.1,0.3-1.7c0-0.6-0.1-1.2-0.3-1.8s-0.5-1.1-0.9-1.6c-0.4-0.4-1-0.8-1.6-1
	c-0.6-0.2-1.2-0.3-1.8-0.3h-5.3V167.7z"/>
<path class="st0" d="M534,182.4h-5.8v-12.1h-11.4v12.1H511v-28.3h5.8v11.5h11.4v-11.5h5.8V182.4z"/>
<path class="st0" d="M239.9,212.7h-7.2v19.6h-4.9v-19.6h-7.1v-3.9h19.2V212.7z"/>
<path class="st0" d="M246.9,216.7c0.6-0.7,1.3-1.3,2.1-1.7c0.8-0.4,1.7-0.6,2.6-0.6c3.8,0,5.7,2.2,5.8,6.6v11.2h-4.7v-11.1
	c0.1-0.8-0.2-1.6-0.6-2.2c-0.3-0.3-0.6-0.5-1-0.6c-0.4-0.1-0.8-0.2-1.2-0.1c-0.6,0-1.2,0.1-1.7,0.4c-0.5,0.3-1,0.7-1.3,1.2v12.4
	h-4.7v-24.9h4.7V216.7z"/>
<path class="st0" d="M268.9,232.7c-1.2,0-2.3-0.1-3.4-0.5s-2.1-1-2.9-1.8c-0.8-0.8-1.5-1.8-1.9-2.9c-0.4-1.1-0.6-2.2-0.6-3.4v-0.5
	c0-1.6,0.3-3.2,1-4.7c0.6-1.3,1.6-2.4,2.9-3.2c1.3-0.8,2.8-1.2,4.3-1.1c1.1-0.1,2.1,0.1,3.1,0.5c1,0.4,1.9,1,2.6,1.8
	c1.4,1.5,2.1,3.7,2.1,6.4v1.9H265c0.1,1.1,0.6,2,1.4,2.8c0.8,0.7,1.8,1.1,2.9,1c0.8,0,1.6-0.1,2.4-0.5c0.7-0.3,1.4-0.9,1.9-1.5
	l2.3,2.6c-0.7,1-1.7,1.8-2.8,2.3C271.7,232.4,270.3,232.7,268.9,232.7z M268.4,218.3c-0.4,0-0.8,0.1-1.2,0.2c-0.4,0.2-0.7,0.4-1,0.7
	c-0.6,0.8-1,1.7-1.1,2.7h6.5v-0.4c0-0.9-0.3-1.7-0.8-2.4c-0.3-0.3-0.7-0.5-1.1-0.7C269.2,218.3,268.8,218.3,268.4,218.3L268.4,218.3
	z"/>
<path class="st0" d="M288.3,232.3v-14.1h-2.6v-3.4h2.6v-1.5c-0.1-0.8,0.1-1.7,0.4-2.5c0.3-0.8,0.7-1.5,1.3-2.1
	c1.3-1.1,3-1.7,4.7-1.6c0.8,0,1.6,0.1,2.4,0.3l0,3.6c-0.5-0.1-0.9-0.2-1.4-0.1c-1.8,0-2.6,0.8-2.6,2.5v1.4h3.5v3.4H293v14.1H288.3z"
	/>
<path class="st0" d="M309.4,230.6c-0.6,0.7-1.3,1.3-2.1,1.6c-0.8,0.4-1.7,0.5-2.6,0.5c-0.8,0.1-1.6-0.1-2.3-0.3
	c-0.7-0.3-1.4-0.7-2-1.3c-1.1-1.3-1.6-3-1.5-4.7v-11.5h4.7v11.3c0,1.8,0.8,2.7,2.5,2.7c0.6,0.1,1.3-0.1,1.9-0.3
	c0.6-0.3,1.1-0.7,1.4-1.3v-12.4h4.7v17.5h-4.4L309.4,230.6z"/>
<path class="st0" d="M323.1,210.5v4.3h3v3.4h-3v8.7c0,0.5,0.1,1,0.4,1.4c0.2,0.2,0.4,0.3,0.7,0.4c0.2,0.1,0.5,0.1,0.8,0.1
	c0.5,0,0.9,0,1.4-0.1v3.5c-0.9,0.3-1.9,0.4-2.8,0.4c-3.3,0-5-1.7-5-5v-9.4h-2.6v-3.4h2.6v-4.3H323.1z"/>
<path class="st0" d="M339.2,230.6c-0.6,0.7-1.3,1.3-2.1,1.6c-0.8,0.4-1.7,0.5-2.6,0.5c-0.8,0.1-1.6-0.1-2.3-0.3
	c-0.7-0.3-1.4-0.7-2-1.3c-1.1-1.3-1.6-3-1.5-4.7v-11.5h4.7v11.3c0,1.8,0.8,2.7,2.5,2.7c0.6,0.1,1.3-0.1,1.9-0.3
	c0.6-0.3,1.1-0.7,1.4-1.3v-12.4h4.7v17.5h-4.4L339.2,230.6z"/>
<path class="st0" d="M357.1,219.2c-0.6-0.1-1.1-0.1-1.7-0.1c-1.8,0-2.9,0.6-3.5,1.8v11.5h-4.7v-17.5h4.4l0.1,2.1
	c0.4-0.7,0.9-1.3,1.6-1.8c0.7-0.4,1.5-0.7,2.3-0.6c0.5,0,1,0.1,1.5,0.2L357.1,219.2z"/>
<path class="st0" d="M367.1,232.7c-1.2,0-2.3-0.1-3.4-0.5c-1.1-0.4-2.1-1-2.9-1.8c-0.8-0.8-1.5-1.8-1.9-2.9
	c-0.4-1.1-0.6-2.2-0.6-3.4v-0.5c0-1.6,0.3-3.2,1-4.7c0.6-1.3,1.6-2.4,2.9-3.2c1.3-0.8,2.8-1.2,4.3-1.1c1.1-0.1,2.1,0.1,3.1,0.5
	c1,0.4,1.9,1,2.6,1.8c1.4,1.5,2.1,3.7,2.1,6.4v1.9h-11.2c0.1,1.1,0.6,2,1.4,2.8c0.8,0.7,1.8,1.1,2.9,1c0.8,0,1.6-0.1,2.4-0.5
	c0.7-0.3,1.4-0.9,1.9-1.5l2.3,2.6c-0.7,1-1.7,1.8-2.8,2.3C369.8,232.4,368.5,232.7,367.1,232.7z M366.5,218.3
	c-0.4,0-0.8,0.1-1.2,0.2c-0.4,0.2-0.7,0.4-1,0.7c-0.6,0.8-1,1.7-1.1,2.7h6.5v-0.4c0-0.9-0.3-1.7-0.8-2.4c-0.3-0.3-0.7-0.5-1.1-0.7
	C367.4,218.3,367,218.3,366.5,218.3L366.5,218.3z"/>
<path class="st0" d="M384.5,223.4c0-1.6,0.3-3.2,1-4.6c0.6-1.3,1.6-2.4,2.9-3.2c1.3-0.8,2.8-1.1,4.4-1.1c1.1,0,2.1,0.1,3.1,0.5
	c1,0.4,1.9,0.9,2.7,1.7c1.6,1.6,2.4,3.7,2.5,5.9l0,1.2c0.1,2.4-0.7,4.7-2.2,6.5c-1.6,1.6-3.8,2.4-6,2.4c-2.3,0-4.4-0.9-6-2.4
	c-1.6-1.8-2.4-4.2-2.3-6.6V223.4z M389.1,223.8c-0.1,1.3,0.2,2.7,0.9,3.8c0.3,0.4,0.7,0.7,1.2,1c0.5,0.2,1,0.3,1.5,0.4
	c0.5,0,1-0.1,1.5-0.3c0.5-0.2,0.9-0.6,1.2-1c0.7-1.3,1.1-2.7,1-4.2c0.1-1.3-0.3-2.7-1-3.8c-0.3-0.4-0.7-0.8-1.2-1
	c-0.5-0.2-1-0.3-1.5-0.3c-0.5,0-1,0.1-1.5,0.3c-0.5,0.2-0.9,0.6-1.2,1C389.4,220.9,389,222.3,389.1,223.8L389.1,223.8z"/>
<path class="st0" d="M405.2,232.3v-14.1h-2.6v-3.4h2.6v-1.5c-0.1-0.8,0.1-1.7,0.4-2.5c0.3-0.8,0.7-1.5,1.3-2.1
	c1.3-1.1,3-1.7,4.7-1.6c0.8,0,1.6,0.1,2.4,0.3l0,3.6c-0.5-0.1-0.9-0.2-1.4-0.1c-1.8,0-2.6,0.8-2.6,2.5v1.4h3.5v3.4h-3.5v14.1H405.2z
	"/>
<path class="st0" d="M428.5,214.8l0.1,2c0.6-0.7,1.4-1.3,2.2-1.7c0.9-0.4,1.8-0.6,2.8-0.5c1-0.1,1.9,0.1,2.7,0.6
	c0.8,0.5,1.5,1.2,1.9,2.1c0.6-0.9,1.4-1.6,2.3-2c0.9-0.5,1.9-0.7,3-0.6c0.8-0.1,1.6,0.1,2.3,0.3c0.7,0.3,1.4,0.7,1.9,1.3
	c1,1.5,1.5,3.2,1.4,5v11.2h-4.7v-11.2c0.1-0.8-0.1-1.5-0.6-2.2c-0.3-0.3-0.6-0.5-1-0.6c-0.4-0.1-0.7-0.2-1.1-0.1
	c-0.6,0-1.3,0.1-1.8,0.5c-0.5,0.4-0.9,0.9-1.1,1.5l0,12h-4.7v-11.2c0.1-0.8-0.1-1.6-0.6-2.2c-0.3-0.3-0.6-0.4-0.9-0.6
	c-0.4-0.1-0.7-0.2-1.1-0.1c-0.6,0-1.2,0.1-1.7,0.4c-0.5,0.3-0.9,0.7-1.2,1.3v12.4h-4.7v-17.5H428.5z"/>
<path class="st0" d="M452,223.4c0-1.6,0.3-3.2,1-4.6c0.6-1.3,1.6-2.4,2.9-3.2c1.3-0.8,2.8-1.1,4.4-1.1c1.1,0,2.1,0.1,3.1,0.5
	c1,0.4,1.9,0.9,2.7,1.7c1.6,1.6,2.4,3.7,2.5,5.9l0,1.2c0.1,2.4-0.7,4.7-2.2,6.5c-1.6,1.6-3.8,2.4-6,2.4s-4.4-0.9-6-2.4
	c-1.6-1.8-2.4-4.2-2.3-6.6V223.4z M456.7,223.8c-0.1,1.3,0.2,2.7,0.9,3.8c0.3,0.4,0.7,0.7,1.2,1c0.5,0.2,1,0.3,1.5,0.4
	s1-0.1,1.5-0.3c0.5-0.2,0.9-0.6,1.2-1c0.7-1.3,1.1-2.7,1-4.2c0.1-1.3-0.3-2.7-1-3.8c-0.3-0.4-0.7-0.8-1.2-1c-0.5-0.2-1-0.3-1.5-0.3
	c-0.5,0-1,0.1-1.5,0.3c-0.5,0.2-0.9,0.6-1.2,1C456.9,220.9,456.6,222.3,456.7,223.8L456.7,223.8z"/>
<path class="st0" d="M475.8,214.8l0.1,2c0.6-0.8,1.4-1.4,2.2-1.8c0.9-0.4,1.8-0.6,2.8-0.6c0.8-0.1,1.5,0.1,2.3,0.3
	c0.7,0.3,1.4,0.7,1.9,1.3c1,1.4,1.5,3.1,1.4,4.9v11.3h-4.7v-11.2c0.1-0.8-0.2-1.6-0.6-2.2c-0.3-0.2-0.6-0.4-1-0.6
	c-0.4-0.1-0.8-0.2-1.1-0.1c-0.6,0-1.2,0.1-1.7,0.4c-0.5,0.3-1,0.7-1.2,1.3v12.4h-4.7v-17.5H475.8z"/>
<path class="st0" d="M498.2,232.7c-1.2,0-2.3-0.1-3.4-0.5c-1.1-0.4-2.1-1-2.9-1.8c-0.8-0.8-1.5-1.8-1.9-2.9
	c-0.4-1.1-0.6-2.2-0.6-3.4v-0.5c0-1.6,0.3-3.2,1-4.7c0.6-1.3,1.6-2.4,2.9-3.2c1.3-0.8,2.8-1.2,4.3-1.1c1.1-0.1,2.1,0.1,3.1,0.5
	c1,0.4,1.9,1,2.6,1.8c1.4,1.5,2.1,3.7,2.1,6.4v1.9h-11.2c0.1,1.1,0.6,2,1.4,2.8c0.8,0.7,1.8,1.1,2.9,1c0.8,0,1.6-0.1,2.4-0.5
	c0.7-0.3,1.4-0.9,1.9-1.5l2.3,2.6c-0.7,1-1.7,1.8-2.8,2.3C500.9,232.4,499.5,232.7,498.2,232.7z M497.6,218.3
	c-0.4,0-0.8,0.1-1.2,0.2c-0.4,0.2-0.7,0.4-1,0.7c-0.6,0.8-1,1.7-1.1,2.7h6.5v-0.4c0-0.9-0.3-1.7-0.8-2.4c-0.3-0.3-0.7-0.5-1.1-0.7
	C498.5,218.3,498,218.3,497.6,218.3z"/>
<path class="st0" d="M514.3,225.7l3.2-10.9h5l-7,20.2l-0.4,0.9c-0.4,1-1.1,1.9-2,2.5c-0.9,0.6-2,0.9-3.1,0.9c-0.7,0-1.4-0.1-2.1-0.3
	v-3.5l0.7,0c0.7,0,1.4-0.1,2-0.4c0.5-0.3,0.8-0.8,1-1.3l0.6-1.4l-6.1-17.6h5L514.3,225.7z"/>
</svg>
