<?xml version="1.0" encoding="UTF-8" standalone="no"?>
<!-- Created with Inkscape (http://www.inkscape.org/) -->

<svg
   width="297mm"
   height="210mm"
   viewBox="0 0 297 210"
   version="1.1"
   id="svg5"
   inkscape:version="1.2.1 (0b8a7e5fb6, 2022-09-14, custom)"
   sodipodi:docname="coindesk.svg"
   xmlns:inkscape="http://www.inkscape.org/namespaces/inkscape"
   xmlns:sodipodi="http://sodipodi.sourceforge.net/DTD/sodipodi-0.dtd"
   xmlns="http://www.w3.org/2000/svg"
   xmlns:svg="http://www.w3.org/2000/svg">
  <sodipodi:namedview
     id="namedview7"
     pagecolor="#ffffff"
     bordercolor="#999999"
     borderopacity="1"
     inkscape:showpageshadow="0"
     inkscape:pageopacity="0"
     inkscape:pagecheckerboard="0"
     inkscape:deskcolor="#d1d1d1"
     inkscape:document-units="mm"
     showgrid="false"
     inkscape:zoom="0.84096521"
     inkscape:cx="430.45776"
     inkscape:cy="419.16122"
     inkscape:window-width="1920"
     inkscape:window-height="945"
     inkscape:window-x="0"
     inkscape:window-y="31"
     inkscape:window-maximized="1"
     inkscape:current-layer="layer1" />
  <defs
     id="defs2" />
  <g
     inkscape:label="Layer 1"
     inkscape:groupmode="layer"
     id="layer1">
    <rect
       style="fill:#ffffff;stroke-width:0.079375;stroke-miterlimit:10"
       id="rect449"
       width="296.81247"
       height="210.78105"
       x="0.21763492"
       y="-0.28653455" />
    <path
       d="m 106.13131,103.86954 c -3.38824,0 -5.4879,-3.04096 -5.4879,-7.248405 0,-4.16572 1.767,-7.269241 5.46701,-7.269241 2.43204,0 4.03267,1.562175 4.32404,3.624211 h 5.65418 c -0.29136,-2.561947 -1.43453,-4.811413 -3.43,-6.311092 -1.62152,-1.24975 -3.86656,-2.020369 -6.52733,-2.020369 -6.818329,0 -11.246049,5.165497 -11.246049,11.976491 0,6.852655 4.57326,11.872385 11.287799,11.872385 3.22168,0 5.57068,-0.89561 7.31699,-2.60361 1.55888,-1.49962 2.59859,-3.58254 2.7438,-5.85283 h -5.65417 c -0.24915,2.22868 -1.91242,3.83246 -4.44837,3.83246 z"
       fill="#262626"
       id="path132"
       style="stroke-width:0.463951" />
    <path
       d="m 126.66953,91.163998 c -5.23848,0 -8.75153,3.749197 -8.75153,8.685597 0,4.936395 3.51305,8.685585 8.75153,8.685585 5.27976,0 8.73063,-3.74919 8.73063,-8.685585 0,-4.9364 -3.45087,-8.685597 -8.73063,-8.685597 z m -0.0209,13.642822 c -2.26595,0 -3.45087,-1.97871 -3.45087,-4.957225 0,-2.97853 1.18492,-4.9989 3.45087,-4.9989 2.26593,0 3.49217,2.02037 3.49217,4.9989 -0.0203,2.978515 -1.22624,4.957225 -3.49217,4.957225 z"
       fill="#262626"
       id="path134"
       style="stroke-width:0.463951" />
    <path
       d="m 142.79648,89.420755 c 1.1121,-1.114378 1.1121,-2.921099 0,-4.035459 -1.11255,-1.114361 -2.91547,-1.114361 -4.02757,0 -1.11208,1.11436 -1.11208,2.921081 0,4.035459 1.1121,1.114361 2.91502,1.114361 4.02757,0 z"
       fill="#262626"
       id="path136"
       style="stroke-width:0.463951" />
    <path
       d="m 136.25244,95.288165 h 2.18243 v 12.726325 h 5.1972 V 91.601466 h -7.37963 z"
       fill="#262626"
       id="path138"
       style="stroke-width:0.463951" />
    <path
       d="m 156.41625,91.122334 c -2.26548,0 -3.84569,0.958101 -5.05104,2.728541 h -0.10399 v -2.249462 h -5.00975 v 16.392197 h 5.2176 v -9.060505 c 0,-2.02037 1.14319,-3.45756 2.86861,-3.45756 1.70456,0 2.55684,1.18721 2.55684,2.91603 v 9.602035 h 5.21761 V 97.329315 c 0,-3.64504 -2.12026,-6.206981 -5.69593,-6.206981 z"
       fill="#262626"
       id="path140"
       style="stroke-width:0.463951" />
    <path
       d="m 174.335,85.102804 h -9.74902 v 22.890806 h 9.39595 c 2.86861,0 5.17584,-0.72901 6.96392,-2.08292 2.55682,-1.95787 3.97004,-5.18632 3.97004,-9.227105 0,-6.99847 -4.2614,-11.580781 -10.58089,-11.580781 z m -0.76878,18.141836 h -3.32605 V 89.851752 h 3.38823 c 3.5548,0 5.57112,2.686903 5.57112,6.852663 -0.0209,4.186555 -1.93327,6.540225 -5.6333,6.540225 z"
       fill="#262626"
       id="path142"
       style="stroke-width:0.463951" />
    <path
       d="m 200.36082,93.288495 c -1.41319,-1.27055 -3.26342,-2.041223 -5.59153,-2.041223 -4.98934,0 -8.39846,3.749163 -8.39846,8.643933 0,4.957225 3.32608,8.706425 8.7311,8.706425 2.07852,0 3.74131,-0.54158 5.11368,-1.49968 1.43408,-0.99977 2.39028,-2.39534 2.74382,-3.87414 h -5.07238 c -0.457,1.0206 -1.35104,1.62462 -2.72294,1.62462 -2.14115,0 -3.34695,-1.37469 -3.6796,-3.58254 h 11.76581 c 0.0209,-3.353425 -0.93532,-6.186125 -2.8895,-7.977395 z m -8.85544,4.8531 c 0.35354,-1.95792 1.37192,-3.20762 3.34696,-3.20762 1.68367,0 2.91037,1.2497 3.09734,3.20762 z"
       fill="#262626"
       id="path144"
       style="stroke-width:0.463951" />
    <path
       d="m 213.51944,97.745895 c -2.07898,-0.37492 -3.92874,-0.54157 -3.92874,-1.68716 0,-1.0206 0.99748,-1.49968 2.26547,-1.49968 1.43454,0 2.4325,0.45825 2.61946,1.91626 h 4.8019 c -0.24959,-3.22845 -2.7438,-5.248822 -7.37961,-5.248822 -3.86658,0 -7.06783,1.791272 -7.06783,5.248822 0,3.853305 3.03516,4.603145 5.88289,5.082215 2.1829,0.37492 4.15747,0.54158 4.15747,2.02037 0,1.06226 -0.99749,1.62467 -2.55682,1.62467 -1.72545,0 -2.80645,-0.7915 -3.0143,-2.43695 h -4.92625 c 0.16606,3.6242 3.15951,5.83201 7.96142,5.83201 4.28228,0 7.44179,-1.85372 7.44179,-5.43626 0.0209,-4.186605 -3.36737,-4.936445 -6.25685,-5.415475 z"
       fill="#262626"
       id="path146"
       style="stroke-width:0.463951" />
    <path
       d="m 232.04131,97.766675 5.75811,-6.165315 h -6.00771 l -4.86407,5.540465 V 85.102804 h -5.13456 v 22.911586 h 5.13456 v -5.04056 l 1.57975,-1.66628 3.92874,6.70684 h 6.02859 z"
       fill="#262626"
       id="path148"
       style="stroke-width:0.463951" />
    <path
       d="m 71.977591,98.141735 c 0.87255,0 1.57985,-0.70873 1.57985,-1.583 0,-0.87427 -0.7073,-1.58296 -1.57985,-1.58296 -0.8725,0 -1.57985,0.70869 -1.57985,1.58296 0,0.87427 0.70735,1.583 1.57985,1.583 z"
       fill="#f8bf1e"
       id="path150"
       style="stroke-width:0.463951" />
    <path
       d="m 84.574991,98.141735 c 0.87251,0 1.57985,-0.70873 1.57985,-1.583 0,-0.87427 -0.70734,-1.58296 -1.57985,-1.58296 -0.87255,0 -1.57985,0.70869 -1.57985,1.58296 0,0.87427 0.7073,1.583 1.57985,1.583 z"
       fill="#f8bf1e"
       id="path152"
       style="stroke-width:0.463951" />
    <path
       d="m 84.574991,110.7847 c 0.87251,0 1.57985,-0.70873 1.57985,-1.583 0,-0.87424 -0.70734,-1.58296 -1.57985,-1.58296 -0.87255,0 -1.57985,0.70872 -1.57985,1.58296 0,0.87427 0.7073,1.583 1.57985,1.583 z"
       fill="#f8bf1e"
       id="path154"
       style="stroke-width:0.463951" />
    <path
       d="m 89.210431,83.624027 c -0.16641,-2.311979 -2.01639,-4.186578 -4.32381,-4.353197 -1.47591,-0.104159 -2.80634,0.458229 -3.74176,1.416351 -0.70679,0.729008 -1.66298,1.166406 -2.6816,1.166406 h -0.37417 c -1.03934,0 -2.01639,-0.437398 -2.74396,-1.187237 -0.85228,-0.874813 -2.03716,-1.39552 -3.34676,-1.39552 -1.30963,0 -2.49452,0.541539 -3.3468,1.39552 -0.72757,0.749839 -1.70456,1.187237 -2.74396,1.187237 h -0.35339 c -1.01854,0 -1.99559,-0.395752 -2.70238,-1.124742 -0.14554,-0.145717 -0.29103,-0.29161 -0.43652,-0.416583 -1.76691,-1.437184 -4.36538,-1.39552 -6.069943,0.125026 -2.057964,1.812103 -2.141116,4.97808 -0.228676,6.89429 0.02087,0.02087 0.04156,0.04173 0.06242,0.06243 0.748349,0.708176 1.143312,1.707997 1.143312,2.728598 v 0.354088 c 0,1.041432 -0.436539,2.020371 -1.184888,2.749381 -0.873076,0.854 -1.392767,2.0412 -1.392767,3.35345 0,1.31219 0.54047,2.49944 1.392767,3.35344 0.748349,0.729005 1.184888,1.707935 1.184888,2.749375 v 0.47907 c 0,1.0206 -0.436539,1.97871 -1.164108,2.68689 -0.914636,0.89564 -1.475902,2.16619 -1.413547,3.56171 0.103984,2.45778 2.099541,4.43652 4.531662,4.51985 1.41357,0.0417 2.68161,-0.52073 3.57545,-1.45802 0.70679,-0.72901 1.663,-1.18723 2.6816,-1.18723 h 0.39496 c 1.0186,0 1.97481,0.43739 2.68159,1.18723 0.93543,0.97894 2.28664,1.54131 3.76256,1.43719 2.30736,-0.16659 4.17826,-2.04124 4.34458,-4.37403 0.18707,-2.77023 -1.97481,-5.06139 -4.69797,-5.06139 -1.28885,0 -2.47374,0.52069 -3.32602,1.37469 -0.72757,0.729 -1.70456,1.16642 -2.72318,1.16642 h -0.43652 c -1.0186,0 -2.01639,-0.39575 -2.74396,-1.14559 -0.0209,-0.0209 -0.0209,-0.0209 -0.0416,-0.0417 -0.74837,-0.729 -1.18489,-1.70794 -1.18489,-2.74937 v -0.4165 c 0,-1.04143 0.43652,-2.02036 1.18489,-2.749365 0.87306,-0.854 1.39279,-2.04126 1.39279,-3.35345 0,-1.31219 -0.54051,-2.49945 -1.39279,-3.35344 -0.74837,-0.72901 -1.18489,-1.707953 -1.18489,-2.749386 v -0.374964 c 0,-1.041432 0.43652,-2.020422 1.16409,-2.749429 0.0209,-0.02069 0.0209,-0.02069 0.0416,-0.04156 0.0209,-0.02087 0.0209,-0.02087 0.0416,-0.04173 0.72757,-0.729007 1.70456,-1.166422 2.74394,-1.166422 h 0.37419 c 1.03938,0 2.01637,0.437415 2.74394,1.187254 0.85228,0.874778 2.03716,1.39552 3.34681,1.39552 1.3096,0 2.49449,-0.541574 3.34677,-1.39552 0.72757,-0.749839 1.70459,-1.187254 2.74394,-1.187254 h 0.33261 c 1.03939,0 2.01639,0.437415 2.74396,1.187254 0.85228,0.874778 2.03716,1.39552 3.3468,1.39552 2.70238,0.02087 4.86426,-2.27035 4.67719,-5.040576 z"
       fill="#f8bf1e"
       id="path156"
       style="stroke-width:0.463951" />
  </g>
</svg>
