<?xml version="1.0" encoding="UTF-8" standalone="no"?>
<svg
   width="1121.8109"
   height="796.65277"
   viewBox="1.91 -25.333 86.494762 61.394826"
   version="1.1"
   id="svg26"
   sodipodi:docname="forbes.svg"
   inkscape:version="1.1.2 (0a00cf5339, 2022-02-04)"
   xmlns:inkscape="http://www.inkscape.org/namespaces/inkscape"
   xmlns:sodipodi="http://sodipodi.sourceforge.net/DTD/sodipodi-0.dtd"
   xmlns="http://www.w3.org/2000/svg"
   xmlns:svg="http://www.w3.org/2000/svg">
  <defs
     id="defs30" />
  <sodipodi:namedview
     id="namedview28"
     pagecolor="#ffffff"
     bordercolor="#999999"
     borderopacity="1"
     inkscape:pageshadow="0"
     inkscape:pageopacity="0"
     inkscape:pagecheckerboard="0"
     showgrid="false"
     fit-margin-top="0"
     fit-margin-left="0"
     fit-margin-right="0"
     fit-margin-bottom="0"
     inkscape:zoom="0.20605092"
     inkscape:cx="1727.7283"
     inkscape:cy="647.89811"
     inkscape:window-width="1920"
     inkscape:window-height="945"
     inkscape:window-x="0"
     inkscape:window-y="31"
     inkscape:window-maximized="1"
     inkscape:current-layer="svg26" />
  <rect
     style="fill:#ffffff;stroke-width:0.0231308;stroke-miterlimit:10"
     id="rect449"
     width="86.494766"
     height="61.42416"
     x="1.91"
     y="-25.350859" />
  <path
     fill="#231f20"
     d="M 13.279288,-8.0854305 H 75.665342 V 16.109123 H 13.279288 Z"
     id="path20"
     style="stroke-width:0.323651" />
  <path
     d="m 49.796217,0.44601748 c -0.784531,0 -1.400763,0.168299 -2.017319,0.504249 0,-1.793352 0,-3.41840498 0.05632,-3.97864498 l -3.755326,0.672223 v 0.336274 l 0.392265,0.05599 c 0.503925,0.111983 0.672871,0.391941 0.783884,1.06481198 0.112954,1.345095 0.05631,8.51882642 0,9.69594622 1.008821,0.2242903 2.073957,0.392589 3.139093,0.392589 2.970472,0 4.763824,-1.8496672 4.763824,-4.7641472 0,-2.297601 -1.457078,-3.97929302 -3.362737,-3.97929302 z M 48.507114,8.5725783 c -0.224291,0 -0.504896,0 -0.672548,-0.055668 -0.05631,-0.7845308 -0.111983,-4.0915998 -0.05631,-7.0057558 0.336274,-0.112307 0.560241,-0.168299 0.840846,-0.168299 1.233759,0 1.906306,1.457078 1.906306,3.250106 -3.23e-4,2.24258 -0.841169,3.9796168 -2.018289,3.9796168 z M 29.955745,-2.8044125 h -9.864244 v 0.504249 l 0.560564,0.05599 c 0.728215,0.111983 1.008821,0.56024 1.12048,1.62505298 0.168623,2.01764202 0.112307,5.66098502 0,7.39769802 -0.111983,1.0651361 -0.391941,1.5697085 -1.12048,1.6250528 L 20.091501,8.516261 v 0.448257 h 6.333208 V 8.516261 L 25.752162,8.4036303 C 25.023623,8.3479623 24.743341,7.8437136 24.631357,6.7785775 24.575047,6.0497145 24.51905,4.8725945 24.51905,3.4158405 l 1.345095,0.05599 c 0.840846,0 1.232788,0.672548 1.401087,1.625053 h 0.504572 v -3.977998 h -0.504572 c -0.168623,0.95283 -0.560241,1.625054 -1.401087,1.625054 l -1.344771,0.05631 c 0,-1.90565902 0.05599,-3.69901102 0.112307,-4.763824 h 1.961327 c 1.513717,0 2.298248,0.952506 2.858488,2.63419798 l 0.560564,-0.168298 z"
     fill="#ffffff"
     id="path22"
     style="stroke-width:0.323651" />
  <path
     d="m 33.150507,0.33403448 c 2.802497,0 4.203583,1.90565902 4.203583,4.42755002 0,2.409907 -1.569385,4.4281968 -4.371882,4.4281968 -2.802173,0 -4.203259,-1.9059825 -4.203259,-4.4281968 0,-2.409908 1.569061,-4.42755002 4.371558,-4.42755002 z m -0.168299,0.560564 c -1.233111,0 -1.569385,1.68136902 -1.569385,3.86698602 0,2.129625 0.560564,3.8669855 1.681692,3.8669855 1.288132,0 1.625053,-1.6813685 1.625053,-3.8669855 0,-2.129626 -0.559916,-3.86698602 -1.73736,-3.86698602 z M 53.887169,4.8178995 c 0,-2.297924 1.457079,-4.48386502 4.315567,-4.48386502 2.353268,0 3.47472,1.73768402 3.47472,4.03528402 h -5.212404 c -0.05632,2.073634 0.952506,3.5870277 2.970472,3.5870277 0.896837,0 1.345094,-0.223643 1.905982,-0.616232 l 0.223643,0.2799583 C 61.004585,8.4046033 59.771797,9.1897813 58.202736,9.1897813 55.680521,9.1894577 53.887169,7.3961058 53.887169,4.8178995 Z m 2.577883,-1.064813 2.634198,-0.05631 c 0,-1.120804 -0.168299,-2.80217302 -1.120804,-2.80217302 -0.952506,0 -1.457726,1.56906202 -1.513394,2.85848802 z M 68.34791,0.78261548 c -0.672548,-0.280606 -1.569062,-0.448581 -2.577883,-0.448581 -2.07331,0 -3.363061,1.23278802 -3.363061,2.69019002 0,1.457401 0.951859,2.073633 2.298572,2.522214 1.400763,0.503925 1.793352,0.896514 1.793352,1.569062 0,0.6725471 -0.504573,1.2887791 -1.40141,1.2887791 -1.06449,0 -1.849668,-0.616232 -2.4659,-2.2979241 l -0.392589,0.112631 0.05632,2.4658988 c 0.672547,0.2799584 1.905335,0.5045724 2.970471,0.5045724 2.185941,0 3.587351,-1.1214518 3.587351,-2.8584882 0,-1.17712 -0.616879,-1.849344 -2.073957,-2.410231 -1.569709,-0.616232 -2.129626,-1.008498 -2.129626,-1.737361 0,-0.728539 0.50522,-1.23311102 1.177767,-1.23311102 1.008174,0 1.680721,0.61655602 2.185941,2.12994902 L 68.4052,2.9682325 Z m -23.708106,-0.224291 c -0.952505,-0.559916 -2.634197,-0.280282 -3.530712,1.73768402 l 0.05567,-1.96165002 -3.754678,0.72853902 v 0.336273 l 0.392265,0.05599 c 0.504896,0.05632 0.728539,0.336274 0.784854,1.065136 0.111984,1.345095 0.05599,3.699335 0,4.876131 -0.05631,0.6719001 -0.279958,1.0081738 -0.784854,1.0644891 l -0.392265,0.056315 v 0.4482571 h 5.21208 V 8.5172316 l -0.672547,-0.056315 c -0.560241,-0.056315 -0.728539,-0.392589 -0.784855,-1.0644891 -0.111983,-1.065136 -0.111983,-3.194762 -0.05567,-4.539857 0.279959,-0.392589 1.51307,-0.728539 2.633875,0 z"
     fill="#ffffff"
     id="path24"
     style="stroke-width:0.323651" />
</svg>
