<?xml version="1.0" encoding="UTF-8" standalone="no"?>
<!-- Created with Inkscape (http://www.inkscape.org/) -->

<svg
   width="76.51786"
   height="80.792999"
   viewBox="0 0 20.24535 21.376476"
   version="1.1"
   id="svg5"
   inkscape:version="1.2.1 (0b8a7e5fb6, 2022-09-14, custom)"
   sodipodi:docname="beatcoin.svg"
   inkscape:export-filename="../bf6a7656/beatcoin.png"
   inkscape:export-xdpi="600"
   inkscape:export-ydpi="600"
   xmlns:inkscape="http://www.inkscape.org/namespaces/inkscape"
   xmlns:sodipodi="http://sodipodi.sourceforge.net/DTD/sodipodi-0.dtd"
   xmlns="http://www.w3.org/2000/svg"
   xmlns:svg="http://www.w3.org/2000/svg">
  <sodipodi:namedview
     id="namedview7"
     pagecolor="#ffffff"
     bordercolor="#999999"
     borderopacity="1"
     inkscape:showpageshadow="0"
     inkscape:pageopacity="0"
     inkscape:pagecheckerboard="0"
     inkscape:deskcolor="#d1d1d1"
     inkscape:document-units="px"
     showgrid="false"
     inkscape:zoom="4.7572176"
     inkscape:cx="60.539589"
     inkscape:cy="57.701796"
     inkscape:window-width="1920"
     inkscape:window-height="945"
     inkscape:window-x="0"
     inkscape:window-y="31"
     inkscape:window-maximized="1"
     inkscape:current-layer="g551" />
  <defs
     id="defs2" />
  <g
     inkscape:label="Layer 1"
     inkscape:groupmode="layer"
     id="layer1"
     transform="translate(-8.6828794,-137.54849)">
    <g
       id="g551"
       transform="translate(-0.58740344,76.834151)">
      <g
         aria-label="B"
         id="text92-6"
         style="font-size:24.275px;line-height:22.7578px;font-family:'Rush Two';-inkscape-font-specification:'Rush Two, Normal';text-align:center;text-anchor:middle;fill:#00c26c;stroke-width:0.113789"
         transform="matrix(0.93822535,0,0,0.93822535,1.194688,4.1273979)">
        <path
           d="m 29.515633,62.000911 q 0,0.1942 -0.02427,0.2913 l -0.849625,4.879275 q -0.04855,0.315575 -0.24275,0.606875 -0.169925,0.2913 -0.43695,0.509775 -0.24275,0.218475 -0.558325,0.33985 -0.2913,0.121375 -0.606875,0.121375 h -3.082925 q -0.53405,0 -0.946725,0.0971 -0.3884,0.0971 -0.4855,0.655425 -0.02427,0.0971 -0.02427,0.24275 0,0.43695 0.33985,0.53405 0.33985,0.0971 0.82535,0.0971 h 3.131475 q 0.5826,0 0.946725,0.3884 0.364125,0.364125 0.364125,0.92245 0,0.169925 -0.02427,0.267025 l -0.849625,4.855 q -0.04855,0.315575 -0.24275,0.606875 -0.169925,0.2913 -0.43695,0.509775 -0.24275,0.218475 -0.558325,0.33985 -0.2913,0.121375 -0.606875,0.121375 h -14.49219 q -0.606875,0 -0.9952752,-0.412675 -0.3884,-0.43695 -0.3884,-1.01955 v -0.14565 l 2.5488752,-14.51645 q 0.04855,-0.315575 0.218475,-0.606875 0.1942,-0.2913 0.43695,-0.509775 0.267025,-0.218475 0.5826,-0.33985 0.315575,-0.121375 0.63115,-0.121375 h 14.51645 q 0.558325,0 0.92245,0.364125 0.3884,0.364125 0.3884,0.92245 z m -8.132125,1.60215 q 0,-0.24275 -0.218475,-0.412675 -0.1942,-0.169925 -0.53405,-0.169925 -0.43695,0 -0.752525,0.1942 -0.2913,0.1942 -0.33985,0.509775 l -0.43695,2.5246 q -0.07283,0.364125 -0.07283,0.655425 0,0.267025 0.121375,0.461225 0.14565,0.169925 0.558325,0.169925 0.703975,0.02428 0.898175,-0.33985 0.218475,-0.3884 0.315575,-0.946725 l 0.43695,-2.548875 q 0,-0.04855 0,-0.04855 0.02427,-0.02428 0.02427,-0.04855 z m -1.480775,8.69045 q 0,-0.315575 -0.169925,-0.4855 -0.169925,-0.1942 -0.6797,-0.218475 -0.63115,0.04855 -0.82535,0.412675 -0.169925,0.364125 -0.267025,0.8739 l -0.4855,2.6217 q 0,0.1942 0.1942,0.3884 0.218475,0.1942 0.6797,0.1942 0.3884,0 0.655425,-0.169925 0.2913,-0.1942 0.33985,-0.412675 l 0.4855,-2.6217 q 0.07283,-0.33985 0.07283,-0.5826 z"
           style="text-align:start;text-anchor:start"
           id="path1708" />
      </g>
      <circle
         id="path1844"
         style="fill:#00c26c;stroke:#000000;stroke-width:0.314267"
         cx="13.230269"
         cy="75.795547"
         r="0.002619185" />
      <circle
         id="path1846"
         style="fill:#00c26c;stroke:#000000;stroke-width:0.314267"
         cx="9.9687862"
         cy="79.827171"
         r="0.002619185" />
      <path
         id="rect1902"
         style="fill:#00c26c;stroke-width:0.134579;stroke-miterlimit:10"
         d="m 13.681831,76.740863 -0.929554,5.146615 h 0.0027 l -7.92e-4,0.0044 h 4.463203 l 0.174706,-0.967291 H 14.03812 l 0.75564,-4.183704 z" />
      <path
         id="rect1902-3"
         style="fill:#00c26c;stroke-width:0.134579;stroke-miterlimit:10"
         d="m 20.634544,76.740863 -0.929554,5.146615 h 0.0027 l -7.92e-4,0.0044 h 4.463203 l 0.174707,-0.967291 h -3.353974 l 0.755639,-4.183704 z" />
    </g>
  </g>
</svg>
