<?xml version="1.0" encoding="UTF-8"?>
<svg width="700pt" height="700pt" version="1.1" viewBox="0 0 700 700" xmlns="http://www.w3.org/2000/svg">
 <g>
  <path d="m350 105c4.6406 0 9.0938-1.8438 12.375-5.125s5.125-7.7344 5.125-12.375v-35c0-6.2539-3.3359-12.031-8.75-15.156s-12.086-3.125-17.5 0-8.75 8.9023-8.75 15.156v35c0 4.6406 1.8438 9.0938 5.125 12.375s7.7344 5.125 12.375 5.125z"/>
  <path d="m350 455c-4.6406 0-9.0938 1.8438-12.375 5.125s-5.125 7.7344-5.125 12.375v35c0 6.2539 3.3359 12.031 8.75 15.156s12.086 3.125 17.5 0 8.75-8.9023 8.75-15.156v-35c0-4.6406-1.8438-9.0938-5.125-12.375s-7.7344-5.125-12.375-5.125z"/>
  <path d="m157.5 262.5h-35c-6.2539 0-12.031 3.3359-15.156 8.75s-3.125 12.086 0 17.5 8.9023 8.75 15.156 8.75h35c6.2539 0 12.031-3.3359 15.156-8.75s3.125-12.086 0-17.5-8.9023-8.75-15.156-8.75z"/>
  <path d="m201.51 403.74-24.762 24.746c-3.2852 3.2812-5.1289 7.7383-5.1289 12.379 0 4.6445 1.8438 9.0977 5.1289 12.383s7.7383 5.1289 12.383 5.1289c4.6406 0 9.0977-1.8438 12.379-5.1289l24.746-24.746c3.375-3.2617 5.3008-7.7422 5.3398-12.434 0.042969-4.6953-1.8047-9.207-5.125-12.527-3.3164-3.3203-7.832-5.1641-12.523-5.125-4.6953 0.039062-9.1758 1.9648-12.438 5.3438z"/>
  <path d="m201.51 156.26c4.4453 4.293 10.824 5.9219 16.785 4.2891s10.617-6.2891 12.25-12.25 0.003906-12.34-4.2891-16.785l-24.746-24.762c-4.4219-4.4219-10.871-6.1523-16.914-4.5312-6.0391 1.6172-10.762 6.3398-12.379 12.379-1.6211 6.043 0.10938 12.492 4.5312 16.914z"/>
  <path d="m367.5 141.05c-11.625-1.4023-23.375-1.4023-35 0-45.609 5.6172-85.555 33.258-106.89 73.961-21.332 40.699-21.332 89.277 0 129.98 21.332 40.703 61.277 68.344 106.89 73.961 11.625 1.4023 23.375 1.4023 35 0 45.609-5.6172 85.555-33.258 106.89-73.961 21.332-40.699 21.332-89.277 0-129.98-21.332-40.703-61.277-68.344-106.89-73.961zm-35 242.38c-32.875-5.5312-61.164-26.359-76.203-56.109s-15.039-64.883 0-94.633 43.328-50.578 76.203-56.109c5.7734-1.0586 11.629-1.5859 17.5-1.5742v210c-5.8711 0.011719-11.727-0.51562-17.5-1.5742z"/>
 </g>
</svg>
